<?xml version="1.0" standalone="no"?>
<!DOCTYPE svg PUBLIC "-//W3C//DTD SVG 20010904//EN"
 "http://www.w3.org/TR/2001/REC-SVG-20010904/DTD/svg10.dtd">
<svg version="1.0" xmlns="http://www.w3.org/2000/svg"
 width="920.000000pt" height="629.000000pt" viewBox="0 0 920.000000 629.000000"
 preserveAspectRatio="xMidYMid meet">

<g transform="translate(0.000000,629.000000) scale(0.100000,-0.100000)"
fill="#000000" stroke="none">
<path d="M3634 6240 c-118 -156 -152 -310 -114 -500 10 -47 17 -85 16 -85 -33
-12 -173 -50 -206 -56 -351 -66 -520 -116 -747 -222 -76 -36 -170 -77 -209
-91 -79 -30 -171 -83 -230 -134 l-39 -33 43 21 c52 25 77 22 36 -5 -16 -10
-67 -51 -114 -90 -440 -374 -718 -935 -801 -1615 -17 -139 -18 -526 -1 -660
97 -770 511 -1478 1182 -2019 243 -196 597 -399 827 -475 477 -156 1083 -242
1533 -216 490 28 808 129 1257 398 265 160 438 295 659 516 330 330 547 673
701 1106 191 537 242 1201 133 1736 -111 545 -426 997 -905 1299 -101 64 -357
191 -453 225 -34 13 -61 25 -59 27 7 6 159 18 245 18 45 0 82 3 82 7 0 4 -8 6
-17 6 -10 0 -115 3 -233 7 -389 16 -497 11 -646 -24 -197 -48 -386 -147 -523
-275 -60 -56 -56 -42 13 52 132 178 309 299 499 338 39 9 73 16 74 18 6 6
-328 68 -485 91 -159 22 -176 26 -200 51 -45 45 -219 154 -246 154 -3 0 14
-20 39 -44 49 -50 77 -100 111 -199 26 -77 28 -77 -76 7 -212 172 -266 266
-145 252 57 -7 23 10 -46 22 -101 19 -116 1 -84 -103 8 -27 13 -50 12 -51 -1
-2 -63 2 -137 7 -75 6 -224 8 -336 4 l-201 -7 -40 94 c-41 93 -85 229 -99 303
-4 22 -9 47 -11 55 -2 8 -7 44 -11 80 l-7 65 -41 -55z m95 -399 c66 -195 166
-353 293 -462 40 -34 100 -84 133 -112 122 -105 325 -317 325 -341 0 -19 -53
-44 -90 -42 -106 6 -296 127 -428 271 -27 30 -53 51 -57 47 -5 -4 -5 -2 -2 4
3 6 -5 27 -19 47 -120 178 -203 462 -219 754 l-5 98 19 -85 c10 -47 33 -127
50 -179z m869 -168 c33 -30 168 -187 182 -212 20 -39 5 -101 -59 -238 -64
-137 -86 -203 -100 -298 l-9 -60 -2 90 c-1 50 -3 110 -5 134 -1 25 -6 101 -9
170 -7 126 -19 253 -34 346 -8 54 -6 85 8 85 4 0 17 -8 28 -17z m-1578 -387
c150 -30 390 -107 390 -125 0 -4 -15 -22 -33 -39 l-33 -32 -78 35 c-110 50
-265 103 -371 126 -118 26 -291 33 -370 15 -33 -8 -61 -13 -63 -11 -6 6 98 34
163 45 81 12 303 5 395 -14z m3150 -126 c204 -37 398 -133 541 -268 78 -73 97
-103 42 -65 -99 68 -357 178 -528 225 -97 27 -129 31 -270 34 -220 4 -416 -31
-712 -127 -70 -23 -135 -44 -143 -46 -33 -11 96 70 168 106 155 77 404 140
602 154 83 5 235 -1 300 -13z m-2237 3 c-7 -2 -19 -2 -25 0 -7 3 -2 5 12 5 14
0 19 -2 13 -5z m-91 -174 c147 -61 303 -126 346 -145 73 -33 75 -35 32 -28
-130 18 -572 149 -724 213 l-41 18 50 26 c28 14 54 26 59 27 5 0 130 -50 278
-111z m-1124 -200 c101 -44 152 -111 158 -205 2 -30 -1 -52 -6 -49 -4 3 -6 15
-4 28 4 21 4 21 -6 -2 -8 -17 -7 -28 2 -40 11 -14 11 -14 -3 -4 -21 16 -32 5
-17 -16 8 -10 4 -9 -10 3 -23 20 -31 10 -9 -13 10 -11 9 -12 -3 -5 -27 15 -42
14 -35 -4 3 -9 3 -13 -1 -10 -3 4 -16 -5 -28 -19 l-21 -25 -3 26 c-1 14 3 26
8 26 5 0 7 -8 3 -17 -5 -15 -4 -16 8 -5 12 11 11 15 -3 26 -10 7 -16 15 -13
18 3 2 -2 5 -10 5 -10 0 -12 -4 -6 -10 5 -5 6 -21 1 -37 -5 -16 -5 -31 -2 -35
4 -4 0 -5 -8 -3 -9 2 -14 -3 -12 -11 3 -12 0 -12 -12 -1 -19 15 -21 0 -3 -20
10 -12 9 -12 -3 -4 -21 14 -42 12 -48 -5 -3 -8 0 -11 7 -7 18 11 13 0 -6 -15
-10 -7 -15 -10 -11 -5 4 5 3 18 -3 29 -9 15 -8 18 3 11 10 -6 11 -5 1 8 -7 8
-11 17 -8 20 3 2 -2 5 -10 5 -10 0 -12 -4 -5 -12 14 -17 0 -27 -19 -13 -13 10
-14 10 -3 -2 21 -24 13 -34 -10 -14 -16 13 -19 14 -10 2 9 -11 10 -18 2 -23
-5 -3 -10 0 -11 7 0 7 -7 0 -14 -17 -13 -27 -21 -27 -15 0 1 6 -2 6 -6 2 -14
-14 -15 -58 -2 -75 12 -15 11 -16 -4 -3 -10 7 -19 11 -19 7 -1 -3 -2 -10 -3
-15 0 -5 -5 -13 -10 -18 -5 -4 -6 -3 -2 4 3 6 2 14 -4 18 -10 6 -15 -9 -10
-30 1 -5 -2 -7 -6 -3 -10 11 -35 -12 -27 -25 3 -5 1 -7 -5 -4 -12 8 -11 25 6
52 8 14 12 16 12 5 0 -12 3 -11 11 3 6 9 14 15 20 12 5 -3 6 2 3 12 -5 14 -4
15 4 4 7 -10 9 -6 9 17 -1 17 -5 28 -10 25 -4 -2 -5 -8 -3 -11 2 -4 -5 -19
-16 -32 -12 -16 -18 -19 -14 -8 3 10 0 20 -6 24 -6 4 -8 3 -5 -3 3 -5 -3 -24
-14 -43 -11 -18 -18 -41 -16 -52 3 -10 2 -20 -2 -22 -11 -7 -12 55 -1 69 8 10
7 15 -2 21 -7 4 -10 4 -6 -1 4 -4 3 -13 -2 -20 -5 -6 -10 -25 -12 -43 -1 -17
-4 -29 -7 -27 -8 9 -31 -17 -24 -29 4 -7 1 -6 -9 1 -15 13 -28 8 -28 -9 0 -5
5 -6 12 -2 7 5 8 3 3 -6 -6 -10 -11 -10 -20 3 -17 24 -28 21 -15 -3 6 -11 8
-20 6 -20 -3 0 -10 10 -17 21 -9 17 -8 23 2 30 10 6 10 9 2 9 -14 0 -33 -32
-32 -52 0 -7 4 -4 8 6 7 19 8 19 13 -2 4 -13 2 -20 -6 -19 -6 1 -10 -4 -8 -12
3 -12 1 -12 -14 0 -16 12 -17 12 -11 -3 9 -24 0 -23 -13 2 -8 15 -8 20 1 18 6
-2 13 3 14 10 2 8 1 8 -2 1 -4 -8 -8 -7 -14 2 -7 11 -9 11 -9 1 0 -7 -4 -11
-8 -8 -4 2 -9 -11 -10 -30 -2 -21 1 -33 7 -30 5 3 7 16 5 29 -4 20 -4 20 5 2
6 -15 3 -26 -12 -43 -13 -14 -24 -19 -30 -13 -12 12 -39 2 -31 -10 3 -5 10 -6
16 -3 7 4 8 2 4 -5 -6 -8 -11 -9 -20 -2 -9 8 -18 6 -30 -7 -9 -10 -13 -21 -10
-24 3 -3 1 -9 -5 -12 -6 -4 -8 2 -6 14 2 11 0 20 -6 20 -5 0 -9 4 -9 9 0 6 9
8 20 6 13 -3 18 0 14 7 -5 7 -2 8 6 3 9 -6 11 -4 5 6 -5 8 -5 11 0 7 12 -11
45 11 44 30 -1 16 -2 16 -6 0 -6 -26 -23 -22 -18 3 3 12 1 18 -3 15 -4 -4 -7
-11 -7 -14 0 -4 -4 -13 -9 -20 -6 -11 -11 -11 -24 0 -15 11 -15 11 -4 -4 9
-11 10 -18 2 -23 -5 -3 -10 0 -10 7 -1 7 -7 2 -15 -12 -8 -14 -14 -32 -14 -40
0 -10 3 -8 9 5 8 17 9 16 7 -7 -2 -15 -7 -31 -12 -35 -4 -4 -5 -3 -1 4 3 6 2
14 -4 18 -9 6 -15 -8 -11 -29 1 -5 -5 -4 -13 4 -14 10 -16 10 -17 -6 -1 -11
-1 -23 0 -27 1 -5 -3 -6 -8 -3 -6 4 -6 18 1 37 8 23 13 27 19 17 7 -10 9 -10
10 2 1 8 3 20 3 25 1 6 6 17 11 25 7 12 6 13 -7 3 -8 -7 -17 -12 -19 -10 -2 1
-1 -2 3 -8 17 -20 7 -27 -14 -9 -13 10 -18 12 -11 5 9 -11 7 -23 -10 -55 -11
-23 -21 -44 -22 -48 0 -3 -4 -10 -9 -15 -5 -4 -6 -3 -2 4 3 6 2 14 -3 17 -13
9 -43 -23 -34 -37 4 -7 -2 -5 -12 3 -17 14 -18 13 -12 -2 3 -10 2 -20 -3 -23
-4 -3 -7 6 -5 20 2 26 15 48 15 26 0 -6 14 2 30 19 17 17 30 25 31 18 0 -7 7
2 15 21 8 18 13 36 10 38 -3 3 -8 -6 -12 -21 -3 -14 -10 -23 -15 -20 -5 3 -6
11 -3 17 4 7 3 8 -2 4 -5 -5 -10 -13 -10 -18 -1 -5 -2 -13 -3 -19 0 -5 -5 -10
-10 -10 -6 0 -8 10 -6 21 3 12 1 18 -3 15 -4 -4 -8 -16 -8 -27 -2 -32 -4 -35
-14 -19 -7 11 -10 11 -10 2 0 -7 -4 -10 -10 -7 -6 4 -7 -1 -3 -11 4 -12 3 -15
-6 -10 -7 5 -16 -4 -23 -26 -7 -18 -11 -36 -10 -40 1 -5 -4 -7 -11 -5 -6 1
-11 -4 -9 -12 3 -12 0 -12 -12 -1 -19 15 -21 0 -3 -20 10 -12 9 -12 -4 -2 -9
6 -19 8 -24 4 -4 -4 -2 3 4 16 7 12 17 20 23 16 7 -5 8 -2 3 6 -5 8 -4 11 3 6
6 -3 13 -2 17 4 12 19 14 50 3 56 -6 4 -8 2 -4 -4 3 -6 2 -13 -3 -17 -6 -3 -8
-13 -5 -23 5 -14 2 -13 -12 3 -13 16 -16 17 -11 3 6 -17 -7 -35 -16 -21 -2 5
-3 3 -1 -2 1 -6 -4 -19 -12 -30 -16 -22 -18 -39 -4 -30 15 9 12 -1 -4 -14 -12
-10 -14 -8 -12 11 2 13 6 34 9 48 6 20 4 19 -8 -5 -12 -25 -19 -27 -17 -4 1 3
-6 6 -14 6 -10 0 -11 -4 -5 -10 7 -7 7 -17 0 -31 -10 -20 -9 -20 5 -2 14 18
15 18 13 -2 -1 -14 -7 -19 -20 -17 -14 3 -17 0 -12 -15 3 -10 1 -21 -4 -25 -7
-4 -8 1 -4 12 6 16 5 16 -10 4 -13 -10 -15 -17 -6 -27 19 -23 4 -16 -17 8 -10
12 -13 18 -5 13 10 -6 12 -4 6 5 -5 9 -4 11 3 6 8 -5 10 -1 6 11 -4 13 -3 14
3 5 7 -9 12 -6 21 13 16 36 14 45 -3 15 -9 -15 -14 -19 -15 -10 0 8 -9 0 -20
-18 -11 -18 -24 -31 -28 -28 -4 2 -9 -5 -9 -16 -2 -20 -1 -20 13 -2 14 18 14
18 4 -4 -6 -12 -15 -20 -20 -17 -5 3 -11 -3 -13 -12 -15 -53 9 109 30 207 59
270 154 451 329 626 205 205 457 324 654 308 36 -3 84 -14 108 -25z m2481 -85
c72 -21 165 -68 276 -141 62 -41 156 -123 305 -268 118 -114 251 -238 295
-275 107 -90 381 -295 481 -361 45 -30 90 -60 100 -67 11 -7 -6 -1 -36 13
-285 133 -677 384 -816 523 -34 34 -69 62 -76 62 -8 0 -43 23 -77 50 -80 64
-296 207 -383 253 -89 47 -232 103 -288 113 -25 4 -48 9 -52 10 -5 1 -27 2
-49 3 -37 1 -40 3 -28 17 24 29 88 64 141 78 60 15 130 12 207 -10z m-799 -70
c-23 -25 -52 -69 -65 -97 -20 -46 -27 -68 -42 -137 -18 -82 -22 -241 -9 -361
l8 -64 -27 25 c-111 104 -164 336 -106 465 24 55 77 114 130 147 28 18 137 67
150 68 2 0 -15 -21 -39 -46z m-1793 -264 c-2 -11 -9 -26 -17 -33 -9 -8 -11 -8
-6 0 3 6 2 14 -4 18 -9 6 -15 -16 -11 -39 1 -5 -6 -3 -15 5 -16 13 -17 12 -10
-6 5 -14 4 -17 -4 -9 -7 7 -7 18 -1 35 9 21 10 22 11 4 1 -18 2 -18 11 3 5 13
13 20 19 17 6 -3 13 1 16 9 9 22 14 20 11 -4z m-73 -80 c10 -13 9 -13 -6 -1
-10 7 -18 21 -17 30 0 13 1 14 6 1 3 -8 11 -22 17 -30z m1320 -156 c104 -35
211 -175 253 -334 22 -82 24 -305 4 -405 -30 -153 -102 -336 -182 -464 -46
-73 -173 -227 -198 -240 -9 -5 -48 -14 -88 -21 -90 -15 -179 -56 -221 -104
-17 -20 -32 -40 -32 -45 0 -17 -77 -20 -144 -6 -123 26 -216 106 -275 237 -92
202 -78 501 35 777 59 143 162 306 259 409 168 181 401 258 589 196z m1201
-159 c64 -30 98 -56 166 -125 75 -75 94 -101 143 -201 85 -171 117 -306 123
-524 5 -144 2 -189 -16 -293 -47 -277 -155 -499 -318 -653 -128 -121 -232
-163 -384 -157 -87 3 -104 7 -170 40 -41 20 -91 52 -112 70 l-38 33 20 45 c27
59 26 96 -4 156 -31 62 -101 131 -185 182 l-65 39 -18 84 c-24 117 -32 321
-18 448 50 426 270 784 539 878 56 20 82 23 162 20 86 -3 102 -7 175 -42z
m-3188 -110 c-1 -13 -6 -27 -9 -31 -4 -3 -5 2 -3 13 2 10 4 24 4 31 1 6 3 12
6 12 3 0 4 -11 2 -25z m2019 -1216 c126 -22 299 -94 341 -142 12 -13 13 -17 3
-11 -21 12 -52 12 -69 0 -9 -7 -13 -7 -9 -1 3 6 2 19 -3 30 -7 18 -8 18 -8 -5
-1 -19 -3 -22 -10 -10 -6 8 -8 17 -6 20 2 4 -2 7 -10 7 -8 0 -12 -4 -9 -9 3
-4 0 -8 -5 -8 -6 0 -10 -5 -9 -11 2 -6 -5 -13 -15 -14 -9 -2 -15 1 -11 6 3 5
-2 9 -11 9 -10 0 -13 -5 -9 -12 5 -8 0 -7 -11 2 -17 14 -18 13 -11 -5 5 -15 4
-17 -5 -8 -12 12 -4 37 10 29 4 -3 13 -1 20 4 9 5 3 7 -17 7 -17 -1 -28 -5
-26 -9 2 -3 0 -10 -6 -13 -8 -5 -7 -12 2 -23 7 -10 0 -6 -14 7 -15 13 -25 27
-23 32 3 4 -3 6 -12 5 -9 -2 -19 -9 -21 -17 -3 -11 -2 -11 6 -1 7 10 13 7 27
-15 17 -26 17 -27 1 -13 -22 17 -66 21 -66 6 0 -6 -5 -3 -11 7 -5 9 -7 22 -3
29 4 7 3 8 -5 4 -6 -4 -9 -18 -7 -32 3 -17 1 -22 -7 -17 -20 13 -51 10 -72 -6
-18 -15 -19 -15 -7 0 10 13 8 19 -10 35 -12 10 -18 13 -14 7 9 -16 -6 -17 -20
-3 -7 7 -11 6 -11 -4 0 -8 4 -13 8 -10 4 2 11 -1 15 -7 4 -8 9 -7 15 2 6 10 9
10 9 2 0 -17 -17 -25 -25 -13 -5 8 -13 6 -24 -4 -15 -14 -18 -14 -18 -1 0 8 4
12 9 9 4 -3 5 2 1 12 -5 14 -8 14 -18 -5 l-11 -22 -12 23 c-11 22 -11 22 -7
-5 2 -16 0 -25 -6 -22 -5 4 -7 11 -4 16 4 5 1 9 -5 9 -6 0 -9 4 -6 8 3 5 -1 9
-9 9 -8 0 -12 -4 -9 -9 3 -4 -2 -11 -10 -14 -9 -3 -13 -11 -9 -18 4 -6 0 -6
-9 2 -11 9 -18 10 -23 2 -3 -6 -12 -7 -18 -3 -22 13 -39 12 -33 -3 9 -24 -3
-16 -19 14 l-15 27 4 -28 c3 -19 1 -25 -7 -20 -23 14 -52 8 -59 -12 -4 -13 -6
-3 -7 26 -2 114 120 186 320 188 41 1 102 -4 135 -10z m226 -161 c-8 -8 -9 -4
-5 13 4 13 8 18 11 10 2 -7 -1 -18 -6 -23z m-471 -21 c-10 -9 -11 -8 -5 6 3
10 9 15 12 12 3 -3 0 -11 -7 -18z m2005 -518 c-14 -333 -138 -632 -357 -863
-383 -405 -910 -570 -1401 -440 -180 47 -254 101 -353 254 -67 102 -130 234
-109 226 36 -14 294 -56 404 -66 297 -26 589 2 839 81 367 117 718 400 870
705 48 95 80 189 89 258 l6 51 9 -45 c4 -25 6 -97 3 -161z m502 -1078 c2 -29
-4 -77 -13 -108 -40 -135 -129 -203 -270 -203 -62 0 -79 5 -69 22 3 5 11 4 19
-2 11 -9 12 -6 8 12 -4 18 -3 20 6 8 9 -12 11 -11 11 7 0 24 37 56 54 46 6 -4
4 2 -4 12 -9 11 -10 16 -2 11 6 -4 12 -2 12 3 0 6 10 11 23 12 21 0 21 1 2 9
-18 8 -18 9 5 9 21 1 22 3 10 12 -12 9 -10 10 8 6 20 -5 22 -3 10 11 -7 9 -8
14 -4 10 5 -5 14 2 21 15 6 12 18 21 27 21 11 -1 15 5 12 19 -2 11 -1 17 2 14
9 -9 33 17 26 28 -3 6 1 4 10 -3 14 -12 16 -10 11 10 -4 18 -3 20 6 8 9 -13
11 -13 11 1 0 22 40 71 54 66 6 -2 12 -27 14 -56z"/>
<path d="M2835 4572 c2 -10 -1 -25 -6 -33 -7 -11 -9 -10 -10 6 0 18 -1 19 -8
2 -4 -10 -10 -18 -14 -18 -4 1 -7 -1 -7 -4 0 -25 2 -28 11 -12 6 9 14 15 19
12 5 -3 11 -1 15 5 11 18 14 49 5 55 -5 3 -7 -3 -5 -13z"/>
<path d="M2757 4517 c-3 -7 -2 -19 3 -26 5 -10 8 -9 13 2 3 7 2 19 -3 26 -5
10 -8 9 -13 -2z"/>
<path d="M2681 4458 c-1 -9 -6 -20 -13 -24 -8 -5 -9 -1 -5 12 7 18 6 18 -6 2
-8 -10 -16 -16 -18 -13 -3 2 -6 -6 -6 -18 -2 -17 0 -19 7 -7 9 13 10 13 10 0
1 -12 3 -11 11 3 6 9 14 15 18 12 12 -7 34 22 28 37 -3 8 -6 5 -7 -7 l-1 -20
-9 20 c-7 16 -9 17 -9 3z"/>
<path d="M2359 4253 c-1 -5 -1 -17 0 -28 1 -15 0 -17 -7 -7 -7 11 -11 10 -16
-3 -5 -14 -9 -15 -20 -6 -11 9 -16 9 -22 0 -4 -7 -3 -9 4 -5 6 3 13 2 17 -4 3
-5 1 -10 -4 -10 -6 0 -11 -5 -11 -11 0 -8 5 -8 15 1 8 7 15 9 15 5 0 -5 9 0
20 10 11 10 19 28 18 41 -2 23 -7 32 -9 17z"/>
<path d="M2161 4114 c6 -7 9 -22 7 -33 -2 -11 2 -19 7 -18 6 1 9 6 7 10 -1 4
-3 18 -4 31 -1 12 -8 23 -15 23 -9 0 -10 -4 -2 -13z"/>
<path d="M3635 3222 c-126 -81 -188 -296 -128 -442 45 -110 149 -131 238 -49
126 116 149 379 42 478 -36 33 -111 39 -152 13z m105 -82 c34 -34 21 -93 -26
-110 -50 -20 -104 33 -84 84 17 47 75 61 110 26z"/>
<path d="M4385 3114 c-49 -25 -81 -62 -112 -127 -25 -56 -28 -72 -28 -172 0
-100 2 -115 28 -168 51 -102 128 -138 212 -97 146 70 194 358 85 508 -50 69
-120 90 -185 56z m67 -91 c22 -20 23 -70 1 -95 -20 -22 -70 -23 -95 -1 -22 20
-23 70 -1 95 20 22 70 23 95 1z"/>
<path d="M4074 2529 c-3 -6 -2 -15 3 -20 5 -5 9 -1 9 11 0 23 -2 24 -12 9z"/>
<path d="M3901 2517 c-8 -10 -7 -14 2 -14 8 0 14 6 14 14 0 7 -1 13 -2 13 -2
0 -8 -6 -14 -13z"/>
<path d="M3981 2514 c0 -11 3 -14 6 -6 3 7 2 16 -1 19 -3 4 -6 -2 -5 -13z"/>
<path d="M3797 2503 c3 -7 6 -13 8 -13 2 0 5 6 8 13 3 8 -1 14 -8 14 -7 0 -11
-6 -8 -14z"/>
<path d="M3828 2509 c-4 -11 1 -15 17 -15 15 0 21 5 18 14 -4 10 -8 11 -13 2
-6 -9 -9 -9 -12 1 -3 10 -6 9 -10 -2z"/>
<path d="M3525 2499 c-4 -6 -5 -12 -2 -15 2 -3 7 2 10 11 7 17 1 20 -8 4z"/>
<path d="M3549 2493 c-7 -10 -9 -15 -5 -11 5 4 15 3 22 -3 9 -8 15 -4 24 13
11 22 10 22 -4 4 -14 -18 -21 -15 -17 7 2 12 -6 8 -20 -10z"/>
<path d="M3606 2493 c-6 -14 -5 -15 5 -6 7 7 10 15 7 18 -3 3 -9 -2 -12 -12z"/>
<path d="M3461 2492 c-1 -8 -6 -10 -13 -6 -7 4 -9 3 -5 -2 4 -4 19 -9 32 -10
16 0 22 3 18 13 -4 11 -8 12 -13 3 -6 -9 -9 -9 -13 1 -4 11 -6 11 -6 1z"/>
<path d="M6113 908 c-15 -20 -25 -38 -20 -38 3 0 12 11 21 25 17 26 16 35 -1
13z"/>
<path d="M5985 769 c-4 -6 -5 -12 -2 -15 2 -3 7 2 10 11 7 17 1 20 -8 4z"/>
<path d="M5855 629 c-4 -6 -5 -12 -2 -15 2 -3 7 2 10 11 7 17 1 20 -8 4z"/>
<path d="M5710 5526 c-36 -5 -60 -10 -55 -12 6 -1 84 -5 175 -8 91 -3 185 -8
210 -12 185 -25 529 -91 540 -103 6 -7 11 -8 90 -15 l65 -6 -70 25 c-238 87
-495 135 -745 139 -80 1 -174 -2 -210 -8z"/>
</g>
</svg>
